<?xml version="1.0" encoding="UTF-8"?>
<svg id="Layer_1" data-name="Layer 1" xmlns="http://www.w3.org/2000/svg" viewBox="0 0 191.34 276.5">
  <defs>
    <style>
      .cls-1 {
        stroke-width: 0px;
      }
    </style>
  </defs>
  <path class="cls-1" d="M74.68,0C42.41,7.28,20.28,25.8,8.36,55.6c-13.2,33-12.08,64.64,12.92,93.16-.99-5.19-2.12-9.91-2.68-14.69-.2-1.73.96-3.62,1.5-5.43,1.84.89,4.39,1.29,5.38,2.76,3.13,4.62,6.16,9.43,8.36,14.54,7.35,17.06,14.18,34.34,21.55,51.39,1.72,3.99,4.75,7.41,7.83,12.08.41-11.94,7.6-16.68,17.16-20.76,12.17,28.44,22.72,56.59,13.23,87.86,19.18-8.68,39.36-31.29,39.94-56.34.37-16.21.87-32.33,8.07-47.27,1.49-3.08,4.14-7.72,6.45-7.84,4.47-.23,5.03,5.08,5.78,8.65,1.4,6.65,2.2,13.42,3.25,20.17.18-.03.62.03.7-.12,7.65-14.19,16.24-27.97,22.71-42.68,21.57-49.05,10.73-101.97-30.49-133.49-5.49-4.2-11.7-7.44-17.98-10.71,16.57,13.54,21.02,32.42,23.7,52.06,2.72,19.92-1.21,38.82-9.5,56.86-11.37,24.76-29.01,44.49-50.17,61.3-.52.41-1.11.74-1.71,1.02-.27.13-.64.06-1.18.09,1.38-15.5,1.28-30.91-2.34-46.12-2.75-11.56-6.4-22.79-13.26-32.66-1.7-2.44-3.7-4.75-5.92-6.72-4.21-3.72-8.56-3.76-12.3.49-5.48,6.23-10.43,12.93-15.55,19.47-1.21,1.54-2.23,3.24-4.78,4.96-2.18-8.25-4.71-16.42-6.46-24.75-3.5-16.63-4.28-33.34.2-49.97C38.13,22.9,50.63,9.45,70.12,2.48c1.25-.45,2.5-.88,3.75-1.34.12-.05.18-.25.81-1.14Z"/>
  <path class="cls-1" d="M68.46,236.06c-6.72,8.09-6.49,17.33.5,25.26,1.61-8.63,4.46-16.64-.5-25.26Z"/>
  <path class="cls-1" d="M29.55,169.98c-6.3,7.2-5.85,12.76,1.49,17.69,2.07-6.04,3.01-11.82-1.49-17.69Z"/>
  <path class="cls-1" d="M152.42,227.73c1.49-5.81,4.05-11.3-.16-16.93-6.16,4.38-6.14,10.9.16,16.93Z"/>
</svg>