<?xml version="1.0" encoding="UTF-8"?>
<svg id="Layer_1" data-name="Layer 1" xmlns="http://www.w3.org/2000/svg" viewBox="0 0 56.01 70.02">
  <defs>
    <style>
      .cls-1 {
        fill: none;
      }

      .cls-1, .cls-2 {
        stroke: #000;
        stroke-linecap: round;
        stroke-miterlimit: 10;
      }

      .cls-3 {
        stroke-width: 0px;
      }
    </style>
  </defs>
  <path class="cls-3" d="M56.01,70.02h-14.01v-14.01H13.96v14.01H0V28.03c0-3.87.73-7.51,2.2-10.91,1.46-3.4,3.46-6.37,5.98-8.91,2.52-2.54,5.48-4.54,8.89-6.01,3.4-1.46,7.04-2.2,10.91-2.2s7.51.73,10.91,2.2c3.4,1.46,6.37,3.47,8.91,6.01s4.54,5.51,6.01,8.91c1.46,3.4,2.2,7.04,2.2,10.91v41.99ZM29.97,42.04c6.64,0,12.02-5.38,12.02-12.02v-1.99c0-1.92-.37-3.74-1.1-5.44s-1.73-3.2-3-4.47-2.76-2.27-4.47-3-3.53-1.1-5.45-1.1-3.73.37-5.44,1.1-3.2,1.73-4.47,3-2.27,2.76-3,4.47-1.1,3.52-1.1,5.44v1.99c0,6.64,5.39,12.03,12.03,12.03h3.98Z"/>
  <path class="cls-2" d="M28.49,17.3c.6.06,1.1.23,1.5.5"/>
  <path class="cls-1" d="M32.8,18.93s3,1,4,4"/>
</svg>